# xmcd CD database file
#
# Track frame offsets:
#	150
#	12878
#	30607
#	54646
#	74506
#	87064
#	101947
#	116328
#	132684
#	144744
#	162858
#	171279
#
# Disc length: 2593 seconds
#
# Revision: 3
# Processed by: cddbd v1.5.2PL0 Copyright (c) Steve Scherf et al.
# Submitted via: CDex 1.51
#
DISCID=a90a1f0c
DTITLE=Rome - Hell Money
DYEAR=2012
DGENRE=Neofolk
TTITLE0=Tangier Fix
TTITLE1=Fester
TTITLE2=This Silver Coil
TTITLE3=Rough Magic
TTITLE4=Among the Wild Boys
TTITLE5=Amsterdam, the Clearing
TTITLE6=Silverstream
TTITLE7=Tightrope Walker (Wild Milk)
TTITLE8=Pornero
TTITLE9=Golden Boy
TTITLE10=Red-Bait
TTITLE11=The Demon Me (Come Clean)
EXTD=YEAR: 2012
EXTT0=
EXTT1=
EXTT2=
EXTT3=
EXTT4=
EXTT5=
EXTT6=
EXTT7=
EXTT8=
EXTT9=
EXTT10=
EXTT11=
PLAYORDER=
